HIERARCHY
ROOT mixamorig:Hips
{
	OFFSET 0.000000 77.627144 7.190781
	CHANNELS 6 Xposition Yposition Zposition Xrotation Yrotation Zrotation
	JOINT mixamorig:Spine
	{
		OFFSET 0.000000 14.685707 -1.734714
		CHANNELS 3 Xrotation Yrotation Zrotation
		JOINT mixamorig:Spine1
		{
			OFFSET 0.000000 17.133331 -2.023833
			CHANNELS 3 Xrotation Yrotation Zrotation
			JOINT mixamorig:Spine2
			{
				OFFSET 0.000000 19.580948 -2.312953
				CHANNELS 3 Xrotation Yrotation Zrotation
				JOINT mixamorig:Neck
				{
					OFFSET 0.000000 22.028564 -2.602070
					CHANNELS 3 Xrotation Yrotation Zrotation
					JOINT mixamorig:Head
					{
						OFFSET 0.000000 7.772293 1.167654
						CHANNELS 3 Xrotation Yrotation Zrotation
						JOINT mixamorig:HeadTop_End
						{
							OFFSET 0.000000 26.518158 3.983897
							CHANNELS 3 Xrotation Yrotation Zrotation
							End Site
							{
								OFFSET 0.000000 26.815750 0.000000
							}
						}
					}
				}
				JOINT mixamorig:LeftShoulder
				{
					OFFSET 11.646637 18.513367 -2.583829
					CHANNELS 3 Xrotation Yrotation Zrotation
					JOINT mixamorig:LeftArm
					{
						OFFSET 23.494797 -6.787735 0.036483
						CHANNELS 3 Xrotation Yrotation Zrotation
						JOINT mixamorig:LeftForeArm
						{
							OFFSET 22.628841 -2.236465 0.895561
							CHANNELS 3 Xrotation Yrotation Zrotation
							JOINT mixamorig:LeftHand
							{
								OFFSET 32.235813 0.214081 0.341628
								CHANNELS 3 Xrotation Yrotation Zrotation
								JOINT mixamorig:LeftHandThumb1
								{
									OFFSET 4.043732 -2.301453 4.675424
									CHANNELS 3 Xrotation Yrotation Zrotation
									JOINT mixamorig:LeftHandThumb2
									{
										OFFSET 3.235001 -1.841141 3.740334
										CHANNELS 3 Xrotation Yrotation Zrotation
										JOINT mixamorig:LeftHandThumb3
										{
											OFFSET 4.136284 -1.355438 2.884997
											CHANNELS 3 Xrotation Yrotation Zrotation
											JOINT mixamorig:LeftHandThumb4
											{
												OFFSET 3.443222 -1.440781 1.895251
												CHANNELS 3 Xrotation Yrotation Zrotation
												End Site
												{
													OFFSET 3.082619 -1.455811 2.429330
												}
											}
										}
									}
								}
								JOINT mixamorig:LeftHandIndex1
								{
									OFFSET 12.534279 0.552322 5.370454
									CHANNELS 3 Xrotation Yrotation Zrotation
									JOINT mixamorig:LeftHandIndex2
									{
										OFFSET 4.462021 -0.042068 -0.222766
										CHANNELS 3 Xrotation Yrotation Zrotation
										JOINT mixamorig:LeftHandIndex3
										{
											OFFSET 4.426414 -0.140015 -0.221126
											CHANNELS 3 Xrotation Yrotation Zrotation
											JOINT mixamorig:LeftHandIndex4
											{
												OFFSET 3.584976 -0.033737 -0.180877
												CHANNELS 3 Xrotation Yrotation Zrotation
												End Site
												{
													OFFSET 3.584984 -0.033707 -0.180676
												}
											}
										}
									}
								}
								JOINT mixamorig:LeftHandMiddle1
								{
									OFFSET 12.067444 0.830978 1.411757
									CHANNELS 3 Xrotation Yrotation Zrotation
									JOINT mixamorig:LeftHandMiddle2
									{
										OFFSET 5.488625 0.110443 -0.140360
										CHANNELS 3 Xrotation Yrotation Zrotation
										JOINT mixamorig:LeftHandMiddle3
										{
											OFFSET 5.193268 -0.285706 -0.132956
											CHANNELS 3 Xrotation Yrotation Zrotation
											JOINT mixamorig:LeftHandMiddle4
											{
												OFFSET 4.443779 -0.316895 -0.113542
												CHANNELS 3 Xrotation Yrotation Zrotation
												End Site
												{
													OFFSET 4.443962 -0.316620 -0.107084
												}
											}
										}
									}
								}
								JOINT mixamorig:LeftHandRing1
								{
									OFFSET 12.202324 0.602158 -2.428782
									CHANNELS 3 Xrotation Yrotation Zrotation
									JOINT mixamorig:LeftHandRing2
									{
										OFFSET 4.681709 0.293594 -0.070412
										CHANNELS 3 Xrotation Yrotation Zrotation
										JOINT mixamorig:LeftHandRing3
										{
											OFFSET 4.517784 0.001785 -0.067170
											CHANNELS 3 Xrotation Yrotation Zrotation
											JOINT mixamorig:LeftHandRing4
											{
												OFFSET 3.536186 -0.473984 -0.050865
												CHANNELS 3 Xrotation Yrotation Zrotation
												End Site
												{
													OFFSET 3.536438 -0.473450 -0.036327
												}
											}
										}
									}
								}
								JOINT mixamorig:LeftHandPinky1
								{
									OFFSET 11.261032 -0.021225 -5.740205
									CHANNELS 3 Xrotation Yrotation Zrotation
									JOINT mixamorig:LeftHandPinky2
									{
										OFFSET 4.446136 0.226913 -0.056313
										CHANNELS 3 Xrotation Yrotation Zrotation
										JOINT mixamorig:LeftHandPinky3
										{
											OFFSET 3.536148 0.035980 -0.044635
											CHANNELS 3 Xrotation Yrotation Zrotation
											JOINT mixamorig:LeftHandPinky4
											{
												OFFSET 2.822449 0.069366 -0.035670
												CHANNELS 3 Xrotation Yrotation Zrotation
												End Site
												{
													OFFSET 2.822449 0.069397 -0.035034
												}
											}
										}
									}
								}
							}
						}
					}
				}
				JOINT mixamorig:RightShoulder
				{
					OFFSET -11.646637 18.513367 -2.620312
					CHANNELS 3 Xrotation Yrotation Zrotation
					JOINT mixamorig:RightArm
					{
						OFFSET -23.494804 -6.787735 -0.036485
						CHANNELS 3 Xrotation Yrotation Zrotation
						JOINT mixamorig:RightForeArm
						{
							OFFSET -22.628826 -2.236481 0.960591
							CHANNELS 3 Xrotation Yrotation Zrotation
							JOINT mixamorig:RightHand
							{
								OFFSET -32.235806 0.214096 0.317908
								CHANNELS 3 Xrotation Yrotation Zrotation
								JOINT mixamorig:RightHandThumb1
								{
									OFFSET -4.056908 -2.304855 4.721249
									CHANNELS 3 Xrotation Yrotation Zrotation
									JOINT mixamorig:RightHandThumb2
									{
										OFFSET -3.245529 -1.843887 3.777003
										CHANNELS 3 Xrotation Yrotation Zrotation
										JOINT mixamorig:RightHandThumb3
										{
											OFFSET -4.153908 -1.359879 2.907515
											CHANNELS 3 Xrotation Yrotation Zrotation
											JOINT mixamorig:RightHandThumb4
											{
												OFFSET -3.491310 -1.375549 1.529044
												CHANNELS 3 Xrotation Yrotation Zrotation
												End Site
												{
													OFFSET -3.035126 -1.400162 2.290608
												}
											}
										}
									}
								}
								JOINT mixamorig:RightHandIndex1
								{
									OFFSET -12.331047 0.757294 5.317495
									CHANNELS 3 Xrotation Yrotation Zrotation
									JOINT mixamorig:RightHandIndex2
									{
										OFFSET -4.758568 -0.224289 -0.035605
										CHANNELS 3 Xrotation Yrotation Zrotation
										JOINT mixamorig:RightHandIndex3
										{
											OFFSET -4.415932 -0.181503 -0.033052
											CHANNELS 3 Xrotation Yrotation Zrotation
											JOINT mixamorig:RightHandIndex4
											{
												OFFSET -3.678474 0.414856 -0.027373
												CHANNELS 3 Xrotation Yrotation Zrotation
												End Site
												{
													OFFSET -3.678375 0.414001 -0.046045
												}
											}
										}
									}
								}
								JOINT mixamorig:RightHandMiddle1
								{
									OFFSET -12.051239 0.663742 1.548264
									CHANNELS 3 Xrotation Yrotation Zrotation
									JOINT mixamorig:RightHandMiddle2
									{
										OFFSET -5.374817 0.301971 -0.166537
										CHANNELS 3 Xrotation Yrotation Zrotation
										JOINT mixamorig:RightHandMiddle3
										{
											OFFSET -5.310471 -0.301758 -0.164593
											CHANNELS 3 Xrotation Yrotation Zrotation
											JOINT mixamorig:RightHandMiddle4
											{
												OFFSET -4.485832 -0.342514 -0.139207
												CHANNELS 3 Xrotation Yrotation Zrotation
												End Site
												{
													OFFSET -4.486198 -0.342010 -0.127963
												}
											}
										}
									}
								}
								JOINT mixamorig:RightHandRing1
								{
									OFFSET -12.195183 0.742325 -2.381488
									CHANNELS 3 Xrotation Yrotation Zrotation
									JOINT mixamorig:RightHandRing2
									{
										OFFSET -4.583191 0.034424 -0.012763
										CHANNELS 3 Xrotation Yrotation Zrotation
										JOINT mixamorig:RightHandRing3
										{
											OFFSET -4.612793 0.026199 -0.012632
											CHANNELS 3 Xrotation Yrotation Zrotation
											JOINT mixamorig:RightHandRing4
											{
												OFFSET -3.314957 -0.541855 -0.006643
												CHANNELS 3 Xrotation Yrotation Zrotation
												End Site
												{
													OFFSET -3.315063 -0.541092 0.010116
												}
											}
										}
									}
								}
								JOINT mixamorig:RightHandPinky1
								{
									OFFSET -11.332825 -0.054398 -5.574547
									CHANNELS 3 Xrotation Yrotation Zrotation
									JOINT mixamorig:RightHandPinky2
									{
										OFFSET -4.462639 0.300003 -0.206312
										CHANNELS 3 Xrotation Yrotation Zrotation
										JOINT mixamorig:RightHandPinky3
										{
											OFFSET -3.493774 0.049591 -0.161451
											CHANNELS 3 Xrotation Yrotation Zrotation
											JOINT mixamorig:RightHandPinky4
											{
												OFFSET -2.793701 0.056946 -0.129098
												CHANNELS 3 Xrotation Yrotation Zrotation
												End Site
												{
													OFFSET -2.793793 0.057053 -0.126857
												}
											}
										}
									}
								}
							}
						}
					}
				}
			}
		}
	}
	JOINT mixamorig:LeftUpLeg
	{
		OFFSET 13.580879 -8.149223 -1.796077
		CHANNELS 3 Xrotation Yrotation Zrotation
		JOINT mixamorig:LeftLeg
		{
			OFFSET 3.676140 -35.802425 -2.676071
			CHANNELS 3 Xrotation Yrotation Zrotation
			JOINT mixamorig:LeftFoot
			{
				OFFSET -0.369089 -26.709160 -2.057140
				CHANNELS 3 Xrotation Yrotation Zrotation
				JOINT mixamorig:LeftToeBase
				{
					OFFSET -1.192477 -6.581660 13.403662
					CHANNELS 3 Xrotation Yrotation Zrotation
					JOINT mixamorig:LeftToe_End
					{
						OFFSET -0.351336 -0.163913 5.937977
						CHANNELS 3 Xrotation Yrotation Zrotation
						End Site
						{
							OFFSET -0.351338 -0.163913 5.937977
						}
					}
				}
			}
		}
	}
	JOINT mixamorig:RightUpLeg
	{
		OFFSET -13.580879 -8.149223 -2.255285
		CHANNELS 3 Xrotation Yrotation Zrotation
		JOINT mixamorig:RightLeg
		{
			OFFSET -3.676140 -35.802425 -2.316821
			CHANNELS 3 Xrotation Yrotation Zrotation
			JOINT mixamorig:RightFoot
			{
				OFFSET 0.369059 -26.709040 -2.090143
				CHANNELS 3 Xrotation Yrotation Zrotation
				JOINT mixamorig:RightToeBase
				{
					OFFSET 1.192393 -6.582436 13.372205
					CHANNELS 3 Xrotation Yrotation Zrotation
					JOINT mixamorig:RightToe_End
					{
						OFFSET 0.351307 -0.164255 5.913618
						CHANNELS 3 Xrotation Yrotation Zrotation
						End Site
						{
							OFFSET 0.351309 -0.164255 5.913618
						}
					}
				}
			}
		}
	}
}
MOTION
Frames: 5
Frame Time: 0.016667
2.380712 75.986656 1.692594 -0.908613 1.539185 -4.135217 1.284620 -1.185439 1.792470 0.728744 0.264196 5.944683 0.710789 0.781495 5.852000 1.045308 -0.304693 -2.163987 1.584931 0.544179 -8.140493 -0.000000 -0.000000 -0.000000 3.582377 -13.764044 -4.622130 6.299718 3.782756 -78.599392 -1.478096 -16.089643 -6.228565 -23.854632 9.099823 -13.543895 18.556147 12.812574 14.281639 0.709044 19.328435 -13.476556 -3.476602 3.897341 2.713176 0.000001 -0.000001 -0.000003 0.129646 -5.177775 -3.556563 -0.707301 2.077003 -19.351167 -0.568830 0.391854 -11.449477 0.000000 0.000001 0.000001 0.298792 0.004146 -13.329842 -0.283765 2.724573 -29.193379 -0.127891 0.949035 -11.386070 0.000001 -0.000000 0.000001 1.646617 3.131651 -26.739728 0.411307 2.329990 -36.749020 0.221510 0.956630 -11.752432 -0.000001 -0.000000 -0.000000 3.993961 7.480853 -35.836647 -0.048268 2.349809 -43.391492 0.030726 1.947862 -21.448426 -0.000001 0.000001 -0.000003 4.508128 3.324398 5.049530 0.986398 -0.337557 62.118747 -1.842598 19.507872 6.336283 -6.577641 -15.085832 13.778938 18.649746 -11.933245 -14.026980 0.939197 -19.159186 13.794230 -4.488829 1.795794 -0.988190 0.000000 -0.000001 0.000004 0.098806 3.484192 2.230691 0.123953 -1.774688 21.022480 -0.465599 0.459835 22.622620 -0.000001 -0.000000 -0.000001 0.379777 1.164071 16.270089 -0.582296 -2.270268 27.052300 -0.332180 -0.778069 14.845785 -0.000000 0.000000 -0.000002 1.824311 -2.855106 24.471320 0.832976 -1.846176 40.231829 -0.319867 0.982102 8.177806 -0.000001 -0.000000 0.000002 3.033844 -4.733060 37.562902 -1.602950 -2.216252 42.646827 -1.985030 0.923237 22.400951 0.000000 -0.000000 -0.000001 -21.911517 10.390890 12.392312 31.773456 10.429047 1.351947 -8.969802 3.972047 -6.536224 -0.441977 -0.000003 0.000000 0.000000 0.000002 -0.000000 1.174331 -4.212704 12.582668 5.601986 -5.671722 3.269535 -6.186540 1.263270 -11.077641 -0.548670 -0.000000 0.000001 0.000001 -0.000001 0.000001 
2.479455 76.018684 1.618510 -1.045593 1.459437 -4.091718 1.350696 -1.263516 1.776275 0.756505 0.247119 5.938193 0.738529 0.764028 5.845832 0.978002 -0.318432 -2.151507 1.378054 0.492763 -8.189782 0.000000 -0.000000 -0.000000 3.481420 -14.120316 -5.183012 6.851700 2.245755 -77.149493 -1.597469 -17.203010 -6.261170 -22.992047 7.689979 -13.565907 18.556147 12.812574 14.281635 0.709042 19.328450 -13.476571 -3.476591 3.897335 2.713182 0.000001 0.000002 -0.000003 0.120593 -5.166066 -3.754539 -0.712431 2.090192 -19.542626 -0.575911 0.403165 -11.620898 -0.000002 0.000001 0.000001 0.303500 0.021156 -13.527083 -0.282807 2.736564 -29.397599 -0.129239 0.958624 -11.557732 0.000000 -0.000001 0.000004 1.656898 3.127195 -26.937493 0.416818 2.339159 -36.958792 0.223752 0.965635 -11.944871 0.000002 0.000000 -0.000000 3.997591 7.490933 -36.033165 -0.043875 2.361249 -43.607872 0.033106 1.957858 -21.640973 -0.000000 0.000000 -0.000001 4.444086 3.681472 5.893431 1.229667 0.574940 61.189356 -1.823340 19.333704 6.330163 -6.100519 -14.066768 13.738373 18.649768 -11.933249 -14.026940 0.939186 -19.159200 13.794230 -4.488824 1.795790 -0.988194 -0.000001 0.000000 0.000004 0.098822 3.484195 2.230712 0.123963 -1.774684 21.022439 -0.465609 0.459832 22.622635 -0.000000 -0.000000 -0.000001 0.379792 1.164074 16.270107 -0.582302 -2.270270 27.052305 -0.332173 -0.778079 14.845795 -0.000000 0.000001 -0.000001 1.824322 -2.855095 24.471338 0.832987 -1.846191 40.231819 -0.319870 0.982110 8.177795 -0.000001 -0.000000 0.000001 3.033855 -4.733059 37.562895 -1.602953 -2.216260 42.646861 -1.985021 0.923235 22.400942 -0.000000 0.000000 -0.000001 -21.691096 10.413374 12.194347 31.609344 10.604950 1.436236 -8.897833 3.961044 -6.503161 -0.455799 0.000010 0.000001 0.000000 -0.000001 -0.000001 1.187927 -4.180528 12.431128 5.707933 -5.574686 3.280822 -6.164477 1.196217 -11.000009 -0.573824 0.000002 -0.000001 0.000001 0.000001 0.000001 
2.589859 76.052536 1.537633 -1.195676 1.401061 -4.047173 1.438132 -1.321188 1.761160 0.794517 0.235284 5.931271 0.776542 0.751725 5.839182 0.889981 -0.340857 -2.138189 1.133667 0.404117 -8.224243 -0.000000 0.000000 0.000000 3.386930 -14.541427 -5.636813 7.260544 0.562050 -75.751374 -1.747159 -18.580515 -6.305233 -22.619295 5.797438 -13.703935 18.556140 12.812580 14.281644 0.709043 19.328436 -13.476559 -3.476600 3.897336 2.713164 0.000002 0.000006 -0.000001 0.094715 -5.132129 -4.325619 -0.727015 2.128343 -20.095197 -0.596184 0.435996 -12.116538 0.000000 0.000000 0.000001 0.317401 0.069726 -14.095999 -0.279743 2.771117 -29.986549 -0.133033 0.986338 -12.054114 -0.000001 -0.000000 0.000001 1.686340 3.114540 -27.507935 0.432943 2.365444 -37.563541 0.230374 0.991615 -12.500295 0.000000 0.000000 -0.000000 4.008255 7.519974 -36.600194 -0.030950 2.394153 -44.231240 0.040180 1.986609 -22.196651 -0.000001 0.000000 -0.000002 4.394135 4.082688 6.607052 1.914899 2.522026 59.925382 -1.826053 19.358223 6.331012 -6.220342 -13.303080 14.795810 18.649756 -11.933259 -14.026979 0.939204 -19.159203 13.794242 -4.488826 1.795800 -0.988190 -0.000002 0.000004 0.000004 0.098824 3.484187 2.230681 0.123947 -1.774685 21.022451 -0.465589 0.459828 22.622645 -0.000001 -0.000000 0.000001 0.379792 1.164072 16.270084 -0.582305 -2.270265 27.052329 -0.332185 -0.778066 14.845788 -0.000000 0.000000 0.000000 1.824319 -2.855103 24.471308 0.832988 -1.846191 40.231819 -0.319875 0.982122 8.177797 0.000000 -0.000000 0.000001 3.033844 -4.733065 37.562912 -1.602939 -2.216267 42.646858 -1.985023 0.923243 22.400932 0.000000 -0.000001 0.000001 -21.462194 10.425636 11.969310 31.438756 10.766888 1.540396 -8.818842 3.964049 -6.463175 -0.460955 0.000007 0.000002 -0.000000 -0.000004 -0.000000 1.212582 -4.153383 12.271281 5.814525 -5.486405 3.288461 -6.142319 1.122002 -10.910297 -0.592855 0.000000 0.000002 0.000001 0.000000 0.000001 
2.707935 76.084175 1.451481 -1.355687 1.367504 -4.007003 1.556405 -1.352104 1.756416 0.844412 0.230278 5.924724 0.826479 0.746160 5.832871 0.779047 -0.371460 -2.124441 0.839366 0.280132 -8.246629 -0.000000 -0.000000 0.000000 3.290592 -15.028638 -6.013541 7.571078 -1.402442 -74.361417 -1.945938 -20.376283 -6.368958 -22.525482 4.070965 -14.237068 18.556142 12.812570 14.281660 0.709048 19.328431 -13.476555 -3.476606 3.897339 2.713177 0.000001 0.000000 -0.000001 0.054194 -5.077522 -5.235566 -0.749519 2.189465 -20.976197 -0.627970 0.488816 -12.908521 -0.000000 0.000001 0.000003 0.340756 0.145898 -15.002690 -0.274171 2.826091 -30.924467 -0.138553 1.030701 -12.847326 -0.000000 -0.000000 0.000002 1.732536 3.094278 -28.416864 0.459151 2.406929 -38.526266 0.241471 1.032910 -13.385834 0.000000 -0.000000 0.000001 4.025849 7.566033 -37.503978 -0.009649 2.446187 -45.223041 0.052036 2.032328 -23.082580 0.000001 -0.000000 -0.000000 4.349607 4.521146 7.208791 2.961909 5.141830 58.258037 -1.858421 19.650794 6.341388 -6.535346 -12.919076 16.813110 18.649755 -11.933249 -14.026988 0.939201 -19.159200 13.794246 -4.488811 1.795789 -0.988190 -0.000001 0.000003 0.000007 0.098817 3.484198 2.230689 0.123973 -1.774692 21.022443 -0.465614 0.459842 22.622637 -0.000001 -0.000000 -0.000002 0.379799 1.164070 16.270069 -0.582311 -2.270263 27.052318 -0.332183 -0.778065 14.845795 -0.000000 0.000002 0.000000 1.824321 -2.855097 24.471316 0.832980 -1.846188 40.231819 -0.319869 0.982123 8.177777 -0.000000 0.000000 0.000002 3.033842 -4.733056 37.562899 -1.602937 -2.216262 42.646864 -1.985034 0.923242 22.400944 0.000001 0.000001 -0.000001 -21.243118 10.420220 11.728222 31.292522 10.894254 1.666873 -8.747343 3.999978 -6.422264 -0.456923 0.000006 0.000002 0.000000 -0.000000 -0.000001 1.231542 -4.134621 12.112443 5.960351 -5.413602 3.294102 -6.145689 1.045710 -10.811716 -0.615573 0.000003 -0.000001 0.000001 0.000001 0.000001 
2.839247 76.118820 1.350968 -1.527867 1.364259 -3.966324 1.696680 -1.363292 1.754391 0.902437 0.230199 5.918850 0.884560 0.745468 5.827208 0.653533 -0.407667 -2.110208 0.510711 0.131739 -8.258003 -0.000000 0.000000 -0.000000 3.187950 -15.568358 -6.358991 7.805407 -3.429783 -72.916791 -2.176868 -22.412052 -6.450313 -22.603970 2.649433 -15.059669 18.556162 12.812576 14.281641 0.709038 19.328450 -13.476572 -3.476610 3.897332 2.713186 0.000002 0.000007 -0.000001 0.001456 -5.003654 -6.450063 -0.778081 2.271638 -22.152942 -0.669403 0.560213 -13.968962 -0.000001 0.000000 -0.000001 0.374142 0.245428 -16.213199 -0.265291 2.899272 -32.175782 -0.145015 1.090206 -13.909469 -0.000000 -0.000000 0.000001 1.792592 3.066664 -29.629992 0.495178 2.461554 -39.810003 0.257288 1.087786 -14.568595 -0.000000 -0.000000 0.000002 4.050488 7.627087 -38.710807 0.020127 2.514937 -46.544700 0.068957 2.093082 -24.265891 0.000000 -0.000001 0.000003 4.302023 4.983990 7.750910 4.249794 7.982737 56.302591 -1.905149 20.071073 6.356637 -6.839081 -12.876769 19.522422 18.649753 -11.933250 -14.026964 0.939202 -19.159201 13.794230 -4.488848 1.795785 -0.988197 -0.000001 -0.000001 0.000004 0.098819 3.484193 2.230695 0.123959 -1.774687 21.022412 -0.465608 0.459834 22.622640 -0.000000 -0.000000 -0.000002 0.379796 1.164075 16.270113 -0.582323 -2.270261 27.052294 -0.332173 -0.778069 14.845799 0.000000 0.000000 -0.000001 1.824321 -2.855100 24.471311 0.832982 -1.846178 40.231829 -0.319870 0.982117 8.177796 0.000001 -0.000001 0.000000 3.033856 -4.733057 37.562902 -1.602948 -2.216252 42.646847 -1.985029 0.923243 22.400942 -0.000000 -0.000000 -0.000001 -21.025033 10.411613 11.462877 31.129352 10.984792 1.810838 -8.654266 4.053784 -6.362460 -0.448564 0.000001 -0.000001 0.000000 0.000001 -0.000001 1.268482 -4.114690 11.946276 6.073222 -5.361987 3.297109 -6.125458 0.960426 -10.702635 -0.642019 0.000005 0.000001 0.000001 0.000000 0.000001 
